<svg width="50" height="46" viewBox="0 0 50 46" fill="none" xmlns="http://www.w3.org/2000/svg">
<path d="M23.8913 29.2799C24.2083 29.5587 24.6041 29.6984 25.0002 29.6984C25.3964 29.6984 25.7923 29.5587 26.1092 29.2799C26.5107 28.9262 35.9393 20.5222 35.9393 11.8063C35.9393 5.77227 31.0323 0.863159 25.0004 0.863159C18.9684 0.863159 14.0612 5.77227 14.0612 11.8063C14.0608 20.5222 23.4898 28.9262 23.8913 29.2799ZM25.0002 8.94703C26.5662 8.94703 27.8361 10.2268 27.8361 11.8063C27.8361 13.3856 26.5662 14.6656 25.0002 14.6656C23.4337 14.6656 22.164 13.3854 22.164 11.8063C22.164 10.2268 23.4337 8.94703 25.0002 8.94703Z" fill="#458FF6"/>
<path d="M46.0198 29.275L44.7527 24.8345C44.5469 24.1137 43.8885 23.6169 43.1394 23.6169H34.0957C33.7688 24.103 33.4238 24.5909 33.059 25.0814C30.5242 28.4872 27.9472 30.7909 27.6615 31.0427C26.9258 31.6905 25.9809 32.0473 25.0002 32.0473C24.0203 32.0473 23.0753 31.6909 22.3386 31.0424C22.0533 30.7909 19.476 28.4868 16.9413 25.0814C16.5765 24.5909 16.2315 24.1028 15.9046 23.6169H6.86079C6.11163 23.6169 5.45321 24.1137 5.24749 24.8345L3.73721 30.1267L37.4964 36.3102L46.0198 29.275Z" fill="#458FF6"/>
<path d="M49.9357 42.9986L46.6983 31.6525L30.6356 45.137H48.3226C48.849 45.137 49.3448 44.8901 49.6618 44.4698C49.9788 44.0495 50.08 43.5047 49.9357 42.9986Z" fill="#458FF6"/>
<path d="M8.21446 33.3348L3.08986 32.3961L0.0646007 42.9987C-0.0796759 43.5047 0.0215029 44.0495 0.338676 44.4697C0.65568 44.8899 1.15147 45.1369 1.67791 45.1369H8.21446V33.3348Z" fill="#458FF6"/>
<path d="M10.5633 33.7653V45.1369H26.9821L35.1612 38.2707L10.5633 33.7653Z" fill="#458FF6"/>
</svg>
